<?xml version="1.0" standalone="no"?>
<!DOCTYPE svg PUBLIC "-//W3C//DTD SVG 20010904//EN"
 "http://www.w3.org/TR/2001/REC-SVG-20010904/DTD/svg10.dtd">
<svg version="1.0" xmlns="http://www.w3.org/2000/svg"
 width="64.000000pt" height="64.000000pt" viewBox="0 0 64.000000 64.000000"
 preserveAspectRatio="xMidYMid meet">

<g transform="translate(0.000000,64.000000) scale(0.100000,-0.100000)"
fill="#000000" stroke="none">
<path d="M267 633 c-3 -5 -8 -25 -12 -45 -9 -47 -34 -56 -87 -32 l-39 18 -35
-36 -35 -35 21 -36 c29 -49 20 -72 -33 -83 l-42 -9 0 -55 0 -55 43 -9 c52 -11
63 -39 36 -85 l-18 -31 37 -37 37 -37 31 18 c46 27 74 16 85 -36 l9 -43 55 0
55 0 9 43 c11 51 37 62 86 37 l33 -17 36 36 36 36 -19 34 c-25 48 -15 71 37
82 l42 9 0 55 0 55 -43 9 c-50 11 -64 41 -38 81 22 33 20 44 -11 77 -31 32
-44 34 -78 12 -40 -26 -70 -12 -81 38 l-9 43 -52 3 c-28 2 -53 -1 -56 -5z
m117 -202 c64 -42 84 -118 47 -175 -58 -87 -164 -87 -222 0 -70 106 69 245
175 175z"/>
</g>
</svg>
