<svg xmlns="http://www.w3.org/2000/svg" version="1.1" xmlns:xlink="http://www.w3.org/1999/xlink" xmlns:svgjs="http://svgjs.com/svgjs" width="512" height="512" x="0" y="0" viewBox="0 0 512 512" style="enable-background:new 0 0 512 512" xml:space="preserve" class=""><g><g><g><path d="m204.948 39.3h29.896c4.143 0 7.5-3.357 7.5-7.5s-3.357-7.5-7.5-7.5h-29.896c-4.143 0-7.5 3.357-7.5 7.5s3.357 7.5 7.5 7.5z" fill="#000000" data-original="#000000" class=""></path><path d="m330.305 31.8c-4.078 0-7.384 3.306-7.384 7.385 0 4.078 3.306 7.384 7.384 7.384s7.384-3.306 7.384-7.384c0-4.079-3.306-7.385-7.384-7.385z" fill="#000000" data-original="#000000" class=""></path><path d="m425.066 350.372h-47.397v-10.528h47.397c13.678 0 24.806-11.127 24.806-24.805s-11.128-24.805-24.806-24.805h-109.613c-12.026 0-22.077 8.603-24.33 19.978h-61.964c-12.765 0-23.149 10.385-23.149 23.148v36.316h-38.324c-3.187-10.022-12.58-17.305-23.644-17.305h-22.806c-13.678 0-24.805 11.127-24.805 24.805-.172 14.834 13.716 26.406 28.708 24.805v21.684c0 12.765 10.385 23.149 23.149 23.149h27.936c4.143 0 7.5-3.357 7.5-7.5s-3.357-7.5-7.5-7.5h-27.936c-4.493 0-8.149-3.656-8.149-8.149v-21.684c11.53 1.339 24.078-5.842 27.546-17.305h124.857c3.736 8.977 12.596 15.305 22.91 15.305h47.216v71.148c0 14.265-11.605 25.87-25.87 25.87h-233.8c-14.265 0-25.87-11.605-25.87-25.87v-430.259c0-14.265 11.605-25.87 25.87-25.87h29.197l3.384 17.671c3.172 16.554 17.704 28.569 34.556 28.569h99.521c16.852 0 31.384-12.016 34.556-28.569l3.384-17.671h29.202c14.265 0 25.87 11.605 25.87 25.87v219.568c0 4.143 3.357 7.5 7.5 7.5s7.5-3.357 7.5-7.5v-219.568c0-22.536-18.334-40.87-40.87-40.87h-233.8c-22.536 0-40.87 18.334-40.87 40.87v430.26c0 22.536 18.334 40.87 40.87 40.87h233.8c22.536 0 40.87-18.334 40.87-40.87v-71.148h47.397c13.678 0 24.806-11.127 24.806-24.805s-11.127-24.805-24.805-24.805zm-281.024 36.609h-22.806c-5.406 0-9.805-4.398-9.805-9.805s4.398-9.805 9.805-9.805h22.806c5.407 0 9.806 4.398 9.806 9.805s-4.399 9.805-9.806 9.805zm148.281-371.981-2.844 14.849c-1.819 9.498-10.156 16.392-19.823 16.392h-99.521c-9.667 0-18.004-6.894-19.823-16.391l-2.844-14.85zm23.13 290.234h109.613c5.407 0 9.806 4.398 9.806 9.805s-4.398 9.805-9.806 9.805h-54.82c-.026 0-.051-.004-.077-.004s-.051.004-.077.004h-54.638c-5.406 0-9.805-4.398-9.805-9.805s4.397-9.805 9.804-9.805zm-94.444 28.126c0-4.493 3.656-8.148 8.149-8.148h63.68c3.892 8.617 12.561 14.632 22.614 14.632h47.216v10.528h-47.216c-11.787 0-21.673 8.266-24.183 19.305h-70.261v-36.317zm204.057 51.621h-54.878c-.007 0-.013-.001-.019-.001s-.013.001-.019.001h-54.697c-5.406 0-9.805-4.398-9.805-9.805s4.398-9.805 9.805-9.805h109.613c5.407 0 9.806 4.398 9.806 9.805s-4.399 9.805-9.806 9.805z" fill="#000000" data-original="#000000" class=""></path><path d="m292.574 464.12c13.678 0 24.805-11.128 24.805-24.806s-11.127-24.805-24.805-24.805h-63.459c-13.678 0-24.805 11.127-24.805 24.805s11.127 24.806 24.805 24.806zm-73.264-24.806c0-5.406 4.398-9.805 9.805-9.805h63.459c5.406 0 9.805 4.398 9.805 9.805s-4.398 9.806-9.805 9.806h-63.459c-5.407 0-9.805-4.398-9.805-9.806z" fill="#000000" data-original="#000000" class=""></path><path d="m109.388 106.861c-4.143 0-7.5 3.357-7.5 7.5v82.578c-1.104 23.727 23.397 45.202 48.517 44.929 24.527.733 51.139-20.461 49.871-45.016v-82.491c0-4.143-3.357-7.5-7.5-7.5s-7.5 3.357-7.5 7.5v82.491c.81 16.13-16.986 30.099-34.931 30.016-15.688.554-34.557-13.984-33.457-29.929v-82.578c0-4.142-3.357-7.5-7.5-7.5z" fill="#000000" data-original="#000000" class=""></path><path d="m228.685 238.861c2.098 1.645 7.044 2.51 10.504-1.473l41.521-55.066 43.416 57.207c2.38 2.163 5.206 4.56 10.509 1.44 3.3-2.504 3.944-7.209 1.44-10.509l-45.979-60.586 39.255-52.061c2.494-3.308 1.834-8.011-1.473-10.504-3.309-2.494-8.012-1.835-10.504 1.473l-36.702 48.675-36.954-48.693c-2.505-3.3-7.209-3.944-10.509-1.44s-3.944 7.209-1.44 10.509l39.518 52.072-44.074 58.452c-2.495 3.308-1.835 8.01 1.472 10.504z" fill="#000000" data-original="#000000" class=""></path></g></g></g></svg>